<svg version="1.2" xmlns="http://www.w3.org/2000/svg" viewBox="0 0 120 120" width="120" height="120">
	<title>litescribe</title>
	<style>
		.s0 { fill: #0074ff } 
		.s1 { fill: #e2e2e2 } 
		.s2 { opacity: 1;fill: #0074ff } 
		.s3 { opacity: .9;fill: #0074ff } 
		.s4 { opacity: .3;fill: #0074ff } 
		.s5 { opacity: .2;fill: #0074ff } 
		.s6 { opacity: .1;fill: #0074ff } 
		.s7 { opacity: .5;fill: #0074ff } 
		.s8 { opacity: .7;fill: #e2e2e2 } 
		.s9 { opacity: .1;fill: #e2e2e2 } 
		.s10 { opacity: .7;fill: #0074ff } 
		.s11 { opacity: .8;fill: #0074ff } 
		.s12 { opacity: .8;fill: #e2e2e2 } 
		.s13 { opacity: .9;fill: #e2e2e2 } 
		.s14 { opacity: .4;fill: #0074ff } 
		.s15 { opacity: .4;fill: #e2e2e2 } 
		.s16 { opacity: .6;fill: #e2e2e2 } 
		.s17 { opacity: .2;fill: #e2e2e2 } 
	</style>
	<g id="Background">
		<path id="Path 0" class="s0" d="m67 56v-1h1 37 1v1l1 1 1 1v1l1 1 1 1v1l1 1 1 1v1l1 1 1 1 1 1v1l1 1 1 1 1 1 1 1v1 1 1 1l-1 1-1 1-1 1-1 1-1 1-1 1-1 1v1l-1 1-1 1-1 1-1 1v1l-1 1-1 1-1 1v1l-1 1-1 1-1 1-1 1-1 1v1h-1-1-1-1l-1-1h-2-1-2-10-3-2-1l-1 1h-1-1-1-1-1-1l-1 1h-1-1-1-1-1l-1 1h-1-1-1-1l-1 1h-1-1-1-1l-1 1h-1-1-1l-1 1h-1-1-1l-1 1h-1-1-1-1l-1 1h-1-1-1l-1 1h-1-1-1l-1 1h-1-1l-1 1h-1-1l-1 1h-1-1l-1 1h-1l-1 1h-1-1l-1 1h-1l-1 1h-1-1l-1 1h-1-1l-1 1h-1l-1 1h-1l-1 1h-1-1v-3l1-1h1l1-1h1l1-1h1l1-1h1 1l1-1h1l1-1h1l1-1h1l1-1h1l1-1h1l1-1h1 1l1-1h1l1-1h1 1l1-1h1 1l1-1h1l1-1h1l1-1h1l1-1h1l1-1h1 1l1-1h1l1-1h1l1-1h1l1-1h1l1-1h1l1-1h1l1-1h1 1l1-1h1l1-1h1 1l1-1h1 1l1-1h1l1-1h1l1-1h1l1-1h1 1 1 1l1 1h1l2 1h1l2-1h1 1l1-1 1-1 1-1v-1l1-1v-1-1l-1-2-1-1-1-1-1-1h-1l-1-1h-1-1-2-1l-1 1h-1l-1 1-1 1-1 1-1 1v3l-1 1h-1-1l-1 1h-1l-1 1h-1l-1 1h-1l-1 1h-1l-1 1h-1l-1 1h-1l-1 1h-1-1l-1 1h-1l-1 1h-1l-1 1h-1-1l-1 1h-1-1l-1 1h-1l-1 1h-1l-1 1h-1-1l-1 1h-1l-1 1h-1l-1 1h-1l-1 1h-1l-1 1h-1l-1 1h-1-1l-1 1h-1l-1 1h-1l-1 1h-1l-1 1h-1l-1 1h-1-1l-1 1h-1-1l-1 1h-1l-1 1h-1l-1 1h-1-1l-1 1h-1v-3-1h1l1-1h1l1-1h1l1-1h1l1-1h1 1l1-1 1-1h1l1-1h1l1-1h1l1-1 1-1h1l1-1h1l1-1 1-1h1l1-1 1-1 1-1h1l1-1 1-1h1l1-1h1l1-1h1l1-1 1-1 1-1 1-1h1l1-1 1-1 1-1 1-1 1-1 1-1h1l1-1 1-1 1-1 1-1 1-1 1-1 1-1 1-1 1-1 1-1 1-1 1-1v-1l1-1 1-1 1-1v-1l1-1 1-1v-1z"/>
		<path id="Path 1" class="s1" d="m55 3l1-1h1v32 2 2 2 1l-1 1v1 1 1 1l-1 1v1 1l-1 1v1 1l-1 1v1l-1 1v1l-1 1v1l-1 1v1l-1 1v1l-1 1v1l-1 1-1 1v1l-1 1-1 1-1 1v1l-1 1-1 1-1 1-1 1-1 1-1 1h-1l-1 1-1 1-1 1-1 1h-1l-1 1-1 1-1 1h-1l-1 1-1 1-1 1h-1l-1 1-1 1h-1l-1 1-1 1h-1l-1 1h-1l-1 1h-1l-1 1h-1-1v-59l1-1h1l1-1 1-1h1l1-1 1-1h1l1-1h1l1-1h1l1-1h1l1-1 1-1h1l1-1 1-1h1l1-1 1-1h1l1-1 1-1h1l1-1 1-1 1-1h1l1-1 1-1 1-1h1l1-1 1-1 1-1h1l1-1 1-1 1-1 1-1 1-1 1-1z"/>
		<path id="Path 2" class="s2" d="m106 56h1v1h-1zm2 3h1v1h-1zm-45 2h1v1h-1zm47 1h1v1h-1zm-50 3h1v1h-1zm52 0h1v1h-1zm3 4h1v1h-1zm-66 7h1v1h-1zm39 1v-1l1 2h-1zm0 3h1v1h-1zm-46 2h1v1h-1zm45 0h1v1h-1zm-2 2h1v1h-1zm-47 1h1v1h-1zm-1 1h1v1h-1zm30 0h1v1h-1zm-32 1h1v1h-1zm30 0h1v1h-1zm-3 1h1v1h-1zm-5 2h1v1h-1zm-31 3h1v1h-1zm-3 2h1v1h-1zm21 1h1v1h-1zm-2 1h1v1h-1zm-24 1h1v1h-1zm15 3h1v1h-1zm-22 1h1v1h-1zm20 0h1v1h-1zm-3 1h1v1h-1zm-5 2h1v1h-1zm-23 6v-3h1v3zm12-1h1v1h-1zm-2 1h1v1h-1zm-9 4h1v1h-1zm-1 4v-3h1v3z"/>
		<path id="Path 3" class="s3" d="m68 55v-1h36 1v1zm39 2h1v1h-1zm-42 1h1v1h-1zm44 2h1v1h-1zm2 3h1v1h-1zm-52 3h1v1h-1zm54 0h1v1h-1zm3 4h1v1h-1zm-66 5h1v1h-1zm69 0h1v1h-1zm-31 4h1v1h-1zm-45 2h1v1h-1zm31 2h1v1h-1zm12 0h1v1h-1zm-47 1h1v1h-1zm32 0h1v1h-1zm-2 1h1v1h-1zm11 1l-2-1h1 1zm1 0v-1h1 1zm-17 1h1v1h-1zm-5 2h1v1h-1zm-15 3h1v1h-1zm2 3h1v1h-1zm-25 1h1v1h-1zm-5 3h1v1h-1zm21 0h1v1h-1zm37 0h1v1h-1zm19 1v-1h2v1zm-79 0h1v1h-1zm21 0h1v1h-1zm-3 1h1v1h-1zm-2 1h1v1h-1zm-5 2h1v1h-1zm13 2h1v1h-1zm-28 1h1v1h-1zm24 0h1v1h-1zm-4 1h1v1h-1zm-16 1h1v1h-1zm13 0h1v1h-1zm-3 1h1v1h-1zm-24 1h1v1h-1zm3 3h1v1h-1z"/>
		<path id="Path 4" class="s4" d="m68 54v-1h36v1zm48 15h1v1h-1zm-37 4v-1h2v1zm5 0h1v1h-1zm3 3h1v1h-1zm-16 5h1v1h-1zm44 0h1v1h-1zm-51 3h1v1h-1zm15 0h1v1h-1zm-20 2h1v1h-1zm52 0h1v1h-1zm-61 4h1v1h-1zm1 2h1v1h-1zm55 0h1v1h-1zm-57 1h1v1h-1zm-10 2h1v1h-1zm5 0h1v1h-1zm58 2h1v1h-1zm-70 1h1v1h-1zm-2 1h1v1h-1zm42 2v-1h1 1v1zm23-1h1v1h-1zm-70 1h1v1h-1zm39 0h1v1h-1zm-6 1h1v1h-1zm-5 1h1v1h-1zm-35 1h1v1h-1zm-1 3h1v1h-1zm-10 2h1v1h-1zm23 0h1v1h-1zm-20 1h1v1h-1zm17 0h1v1h-1zm-3 1h1v1h-1zm-3 1h1v1h-1zm-3 1h1v1h-1zm-3 1h1v1h-1zm-3 1h1v1h-1zm-3 1h1v1h-1z"/>
		<path id="Path 5" class="s5" d="m64 58h1v1h-1zm12 15h1v1h-1zm43 3h1v1h-1zm-3 4h1v1h-1zm-47 2h1v1h-1zm-2 1h1v1h-1zm13 2v-1h2v1h-1zm-18 0h1v1h-1zm50 0h1v1h-1zm-52 1h1v1h-1zm-3 1h1v1h-1zm-2 1h1v1h-1zm-7 3h1v1h-1zm59 0h1v1h-1zm-70 5h1v1h-1zm66 0h1v1h-1zm-68 1h1v1h-1zm-7 3h1v1h-1zm46 1v-1h1 2 1v1zm18 0v-1h1 2v1zm8-1h1v1h-1zm-35 2v-1h1 1 1v1zm-42 0h1v1h-1zm36 0h1v1h-1zm-5 1h1v1h-1zm-5 1h1v1h-1zm-33 1h1v1h-1zm25 1h1v1h-1zm-4 1h1v1h-1zm-3 1h1v1h-1zm-22 1h1v1h-1zm-7 1h1v1h-1zm-2 1h1v1h-1zm-2 1h1v1h-1zm12 3h1v1h-1zm-3 1h1v1h-1zm-3 1h1v1h-1zm-3 1h1v1h-1z"/>
		<path id="Path 6" fill-rule="evenodd" class="s6" d="m119 73h1v1h-1zm-2 6h1v1h-1zm-3 4h1v1h-1zm-49 1h1v1h-1zm48 0h1v1h-1zm-47 1h1v1h-1zm-8 2h1v1h-1zm-12 5h1v1h-1zm-2 1h1v1h-1zm60 2h1v1h-1zm-71 3h1v1h-1zm-2 1h1v1h-1zm1 1h1v1h-1zm46 1v-1h14v1zm-52 0h1v1h-1zm42 1v-1h2zm-44 0h1v1h-1zm36 1v-1h3zm-39 0h1v1h-1zm34 1v-1h2zm-10 1h1v1h-1zm-31 1h1v1h-1zm17 3h1v1h-1zm-6 2h1v1h-1zm-3 1h1v1h-1zm-3 1h1v1h-1zm-3 1h1v1h-1zm-5 2h1v1h-1zm-3 1h1v1h-1zm-3 1h1v1h-1zm95-17h-2 1z"/>
		<path id="Path 7" class="s7" d="m106 55h1v1h-1zm-41 2h1v1h-1zm-4 6h1v1h-1zm54 5h1v1h-1zm-33 4h1v1h-1zm-10 8v-3h1v3zm-26-2h1v1h-1zm24 3h1v1h-1zm17 0h1v1h-1zm-46 1h1v1h-1zm31 1h1v1h-1zm3 0h1v1h-1zm10 0h1v1h-1zm28 0h1v1h-1zm-50 1h1v1h-1zm14 0h1v1h-1zm6 0h1v1h-1zm-46 1h1v1h-1zm28 1h1v1h-1zm-11 2h1v1h-1zm55 0h1v1h-1zm-55 3h1v1h-1zm-9 1h1v1h-1zm-20 1h1v1h-1zm20 2h1v1h-1zm-25 1h1v1h-1zm16 0h1v1h-1zm-5 2h1v1h-1zm7 0h1v1h-1zm42 2v-1h10v1zm20-1h1v1h-1zm-87 1h1v1h-1zm56 0h1v1h-1zm30 0h1v1h-1zm-88 1h1v1h-1zm20 0h1v1h-1zm31 0h1v1h-1zm-40 1h1v1h-1zm35 0h1v1h-1zm-5 1h1v1h-1zm-32 3h1v1h-1zm-20 1h1v1h-1zm11 0h1v1h-1zm25 0h1v1h-1zm-7 2h1v1h-1zm-25 1h1v1h-1zm7 0h1v1h-1zm15 0h1v1h-1zm-20 2h1v1h-1zm-2 1h1v1h-1zm7 2h1v1h-1z"/>
		<path id="Path 8" class="s8" d="m53 4h1v1h-1zm-1 1h1v1h-1zm-6 5h1v1h-1zm-12 9h1v1h-1zm-9 6h1v1h-1zm-5 3h1v1h-1zm37 8v-2h1v2zm-48 59v-60h1v59 1zm45-45h1v1h-1zm-2 5h1v1h-1zm-3 6h1v1h-1z"/>
		<path id="Path 9" class="s9" d="m56 0h1v1h-1zm1 42v-1h1l-1 3v-1zm-1 5v-1h1l-1 2zm-1 3h1v1h-1zm-1 3h1v1h-1zm-1 2h1v1h-1zm-1 2h1v1h-1zm-1 2h1v1h-1zm-3 5h1v1h-1zm-3 4h1v1h-1zm-4 5h1v1h-1zm-9 8h1v1h-1zm-4 3h1v1h-1zm-3 2h1v1h-1zm-3 2h1v1h-1zm-5 3h1v1h-1zm-5 3h1v1h-1z"/>
		<path id="Path 10" class="s10" d="m67 54h1v1h-1zm38 0h1v1h-1zm3 4h1v1h-1zm-44 1h1v1h-1zm46 2h1v1h-1zm-48 1h1v1h-1zm50 2h1v1h-1zm-56 5h1v1h-1zm-1 1h1v1h-1zm-1 1h1v1h-1zm63 0h1v1h-1zm-64 1h1v1h-1zm-8 7h1v1h-1zm22 3h1v1h-1zm-27 1h1v1h-1zm25 0h1v1h-1zm5 1h1v1h-1zm42 0h1v1h-1zm-44 1h1v1h-1zm-5 2h1v1h-1zm45 2h1v1h-1zm-61 2h1v1h-1zm5 1h1v1h-1zm-2 1h1v1h-1zm-10 1h1v1h-1zm-18 1h1v1h-1zm16 0h1v1h-1zm-3 1h1v1h-1zm8 0h1v1h-1zm-10 1h1v1h-1zm8 0h1v1h-1zm-24 1h1v1h-1zm-2 1h1v1h-1zm21 0h1v1h-1zm41 1v-1h3v1h-2zm13 0v-1h2v1zm-22 0h1v1h-1zm30 0h1v1h-1zm-74 1h1v1h-1zm37 0h1v1h-1zm-32 1h1v1h-1zm18 2h1v1h-1zm-4 1h1v1h-1zm-41 1h1v1h-1zm11 0h1v1h-1zm26 0h1v1h-1zm-21 1h1v1h-1zm14 1h1v1h-1zm-26 1h1v1h-1zm19 1h1v1h-1zm-24 1h1v1h-1zm8 0h1v1h-1zm13 0h1v1h-1zm-3 1h1v1h-1zm-3 1h1v1h-1zm-14 1h1v1h-1zm-2 1h1v1h-1zm8 1h1v1h-1z"/>
		<path id="Path 11" class="s11" d="m66 56h1v1h-1zm-8 11h1v1h-1zm56 0h1v1h-1zm-57 1h1v1h-1zm-5 5h1v1h-1zm-1 1h1v1h-1zm68 0h1v1h-1zm-31 4h1v1h-1zm-44 2h1v1h-1zm25 1h1v1h-1zm4 2h1v1h-1zm3 1h1v1h-1zm8 0h1v1h-1zm-4 1h1v1h-1zm-44 1h1v1h-1zm30 0h1v1h-1zm-33 2h1v1h-1zm28 0h1v1h-1zm-34 4h1v1h-1zm15 1h1v1h-1zm-18 1h1v1h-1zm24 0h1v1h-1zm-11 1h1v1h-1zm-18 2h1v1h-1zm20 1h1v1h-1zm36 2v-1h2v1zm17-1h1v1h-1zm-58 1h1v1h-1zm33 0h1v1h-1zm-55 1h1v1h-1zm-2 1h1v1h-1zm46 0h1v1h-1zm-48 1h1v1h-1zm19 0h1v1h-1zm24 0h1v1h-1zm-45 1h1v1h-1zm-2 1h1v1h-1zm31 2h1v1h-1zm-27 1h1v1h-1zm8 0h1v1h-1zm15 0h1v1h-1zm-3 1h1v1h-1zm-25 1h1v1h-1zm18 1h1v1h-1zm-14 1h1v1h-1zm-2 1h1v1h-1zm-5 6h1v1h-1z"/>
		<path id="Path 12" class="s12" d="m56 1h1v1h-1zm1 33v-32h1v32zm-6-28h1v1h-1zm-10 8h1v1h-1zm-4 3h1v1h-1zm-4 3h1v1h-1zm-18 11h1v1h-1zm41 11h1v1h-1zm-5 15h1v1h-1zm-1 2h1v1h-1z"/>
		<path id="Path 13" class="s13" d="m57 1h1v1h-1zm-7 6h1v1h-1zm-1 1h1v1h-1zm-1 1h1v1h-1zm-3 2h1v1h-1zm-1 1h1v1h-1zm-4 3h1v1h-1zm-4 3h1v1h-1zm-6 4h1v1h-1zm-3 2h1v1h-1zm-3 2h1v1h-1zm-2 1h1v1h-1zm-10 6h1v1h-1zm-2 1h1v1h-1zm0 60h1v1h-1z"/>
		<path id="Path 14" class="s14" d="m104 53h1v1h-1zm-41 7h1v1h-1zm18 12h1v1h-1zm-9 8h1v1h-1zm-30 1h1v1h-1zm72 1h1v1h-1zm-48 1h1v1h-1zm12 1h1v1h-1zm4 0h1v1h-1zm-15 1h1v1h-1zm43 2h1v1h-1zm-58 2h1v1h-1zm-29 5h1v1h-1zm18 0h1v1h-1zm1 2h1v1h-1zm-8 1h1v1h-1zm-7 3h1v1h-1zm44 0h1v1h-1zm25 0h1v1h-1zm-48 4h1v1h-1zm-4 1h1v1h-1zm-4 1h1v1h-1zm-25 2h1v1h-1zm18 0h1v1h-1zm-25 3h1v1h-1zm-8 1h1v1h-1zm6 5h1v1h-1z"/>
		<path id="Path 15" class="s14" d="m66 55h1v1h-1zm45 7h1v1h-1zm2 3h1v1h-1zm-35 7h1v1h-1zm-10 10h1v1h-1zm-7 3h1v1h-1zm-18 8h1v1h-1zm62 0h1v1h-1zm-58 1h1v1h-1zm-29 3h1v1h-1zm22 0h1v1h-1zm61 1h1v1h-1zm-72 1h1v1h-1zm4 1h1v1h-1zm37 0h1v1h-1zm27 0h1v1h-1zm-34 1h1v1h-1zm-43 2h1v1h-1zm2 2h1v1h-1zm-13 3h1v1h-1zm4 1h1v1h-1zm-11 2h1v1h-1zm21 0h1v1h-1zm-3 1h1v1h-1zm-3 1h1v1h-1zm-3 1h1v1h-1zm-13 5h1v1h-1z"/>
		<path id="Path 16" class="s15" d="m57 0h1v1h-1zm-22 18h1v1h-1zm-3 2h1v1h-1zm-21 13h1v1h-1zm46 7v-2h1v2zm-1 4h1v1h-1zm-1 4h1v1h-1zm-1 3h1v1h-1zm-1 3h1v1h-1zm-1 2h1v1h-1zm-1 2h1v1h-1zm-1 2h1v1h-1zm-2 3h1v1h-1zm-2 3h1v1h-1zm-10 11h1v1h-1zm-1 1h1v1h-1zm-5 4h1v1h-1zm-3 2h1v1h-1zm-14 9h1v1h-1zm-4 2h1v1h-1z"/>
		<path id="Path 17" class="s16" d="m54 3h1v1h-1zm-16 13h1v1h-1zm-7 5h1v1h-1zm-3 2h1v1h-1zm-2 1h1v1h-1zm-3 2h1v1h-1zm-10 6h1v1h-1zm44 6v-2h1v2zm-1 5h1v1h-1zm-1 4h1v1h-1zm-2 6h1v1h-1zm-22 28h1v1h-1zm-20 13h1v1h-1z"/>
		<path id="Path 18" class="s17" d="m57 40h1v1h-1zm-1 5h1v1h-1zm-1 4h1v1h-1zm-1 3h1v1h-1zm-5 10h1v1h-1zm-2 3h1v1h-1zm-3 4h1v1h-1zm-1 1h1v1h-1zm-9 9h1v1h-1zm-1 1h1v1h-1zm-4 3h1v1h-1zm-3 2h1v1h-1zm-3 2h1v1h-1zm-3 2h1v1h-1zm-5 3h1v1h-1zm-5 3h1v1h-1z"/>
		<path id="Path 19" class="s2" d="m68 81h1v1h-1zm-2 1h1v1h-1zm47 0h1v1h-1zm-49 1h1v1h-1zm48 0h1v1h-1zm-3 4h1v1h-1zm-56 1h1v1h-1zm55 0h1v1h-1zm-62 3h1v1h-1zm60 0h1v1h-1zm-63 1h1v1h-1zm62 0h1v1h-1zm-69 3h1v1h-1zm-2 1h1v1h-1zm-2 1h1v1h-1zm69 0h1v1h-1zm-1 1h1v1h-1zm-27 1h1v1h-1zm22 0h1v1h-1zm-72 2h1v1h-1zm-2 1h1v1h-1zm-2 1h1v1h-1zm31 0h1v1h-1zm-38 3h1v1h-1zm25 0h1v1h-1zm-28 1h1v1h-1zm24 0h1v1h-1zm-4 1h1v1h-1zm-3 1h1v1h-1zm-24 1h1v1h-1zm21 0h1v1h-1zm-3 1h1v1h-1zm-13 5h1v1h-1z"/>
		<path id="Path 20" class="s3" d="m83 72h1v1h-1zm-11 4h1v1h-1zm-1 4h1v1h-1zm43 1h1v1h-1zm-52 3h1v1h-1zm48 2h1v1h-1zm-59 3h1v1h-1zm-21 1h1v1h-1zm77 0h1v1h-1zm-66 3h1v1h-1zm-2 1h1v1h-1zm63 2h1v1h-1zm-72 2h1v1h-1zm36 2h1v1h-1zm-6 1h1v1h-1zm-5 1h1v1h-1zm-38 2h1v1h-1zm29 0h1v1h-1zm-4 1h1v1h-1zm-35 3h1v1h-1zm-2 1h1v1h-1zm13 3h1v1h-1zm-3 1h1v1h-1zm-5 2h1v1h-1zm-5 2h1v1h-1z"/>
		<path id="Path 21" class="s4" d="m112 63h1v1h-1zm2 3h1v1h-1zm-66 10h1v1h-1zm-5 4h1v1h-1zm31 2h1v1h-1zm-35 1h1v1h-1zm32 0h1v1h-1zm-2 1h1v1h-1zm-34 2h1v1h-1zm23 3h1v1h-1zm-37 6h1v1h-1zm16 3h1v1h-1zm-30 5h1v1h-1zm-4 10h1v1h-1z"/>
		<path id="Path 22" class="s5" d="m66 54h1v1h-1zm-1 2h1v1h-1zm43 1h1v1h-1zm2 3h1v1h-1zm-48 1h1v1h-1zm51 3h1v1h-1zm-54 1h1v1h-1zm-1 1h1v1h-1zm-1 1h1v1h-1zm58 0h1v1h-1zm-59 1h1v1h-1zm-1 1h1v1h-1zm-1 1h1v1h-1zm-1 1h1v1h-1zm-1 1h1v1h-1zm-1 1h1v1h-1zm-1 1h1v1h-1zm-1 1h1v1h-1zm-5 4h1v1h-1zm43 1h1v1h-1zm-47 2h1v1h-1zm33 0h1v1h-1zm3 1h1v1h-1zm8 0h1v1h-1zm-24 5h1v1h-1zm-7 3h1v1h-1zm-27 1h1v1h-1zm-2 1h1v1h-1zm24 0h1v1h-1zm-2 1h1v1h-1zm-27 2h1v1h-1zm22 0h1v1h-1zm-2 1h1v1h-1zm-25 2h1v1h-1zm12 4h1v1h-1zm-21 1h1v1h-1zm-2 1h1v1h-1zm-2 1h1v1h-1zm18 0h1v1h-1zm-5 2h1v1h-1zm-7 3h1v1h-1zm-2 1h1v1h-1z"/>
		<path id="Path 23" class="s6" d="m67 53h1v1h-1zm38 0h1v1h-1zm1 1h1v1h-1zm-42 3h1v1h-1zm-1 2h1v1h-1zm48 2h1v1h-1zm-50 1h1v1h-1zm55 6h1v1h-1zm1 2h1v1h-1zm-72 8h1v1h-1zm-4 3h1v1h-1zm-5 4h1v1h-1zm28 1h1v1h-1zm-2 1h1v1h-1zm-30 1h1v1h-1zm18 4h1v1h-1zm-28 2h1v1h-1zm21 1h1v1h-1zm-26 2h1v1h-1zm-5 3h1v1h-1zm-2 1h1v1h-1zm20 0h1v1h-1zm-2 1h1v1h-1zm-7 3h1v1h-1zm-5 2h1v1h-1zm-5 2h1v1h-1zm-2 1h1v1h-1z"/>
		<path id="Path 24" class="s7" d="m74 74h1v1h-1zm-1 1h1v1h-1zm44 3h1v1h-1zm-83 9h1v1h-1z"/>
		<path id="Path 25" class="s8" d="m32 80h1v1h-1zm-4 3h1v1h-1z"/>
		<path id="Path 26" class="s9" d="m58 2v-1 33zm-5 1h1v1h-1zm-1 1h1v1h-1zm-7 6h1v1h-1zm-5 4h1v1h-1zm-3 2h1v1h-1zm-3 2h1v1h-1zm-3 2h1v1h-1zm-6 4h1v1h-1zm-3 2h1v1h-1zm-3 2h1v1h-1zm-5 3h1v1h-1zm-2 1h1v1h-1zm-2 1h1v1h-1zm-2 62h1v1h-1z"/>
		<path id="Path 27" class="s10" d="m86 74h1v1h-1zm30 5h1v1h-1zm-58 7h1v1h-1zm-2 1h1v1h-1zm48 7h1v1h-1zm-91 20h1v1h-1zm-10 4h1v1h-1z"/>
		<path id="Path 28" class="s11" d="m77 72h1v1h-1zm-2 1h1v1h-1zm10 0h1v1h-1zm2 2h1v1h-1zm28 5h1v1h-1zm-55 5h1v1h-1zm51 0h1v1h-1zm-62 5h1v1h-1zm54 5h1v1h-1zm-75 4h1v1h-1zm-2 1h1v1h-1zm-11 5h1v1h-1z"/>
		<path id="Path 29" class="s12" d="m55 46h1v1h-1zm-2 6h1v1h-1zm-6 12h1v1h-1zm-3 4h1v1h-1zm-11 11h1v1h-1zm-8 6h1v1h-1zm-9 6h1v1h-1z"/>
		<path id="Path 30" class="s13" d="m56 41h1v1h-1zm-2 8h1v1h-1zm-2 5h1v1h-1zm-1 2h1v1h-1zm-1 2h1v1h-1zm-1 2h1v1h-1zm-1 2h1v1h-1zm-2 3h1v1h-1zm-3 4h1v1h-1zm-8 8h1v1h-1zm-1 1h1v1h-1zm-4 3h1v1h-1zm-1 1h1v1h-1zm-3 2h1v1h-1zm-4 3h1v1h-1zm-3 2h1v1h-1zm-5 3h1v1h-1zm-2 1h1v1h-1z"/>
		<path id="Path 31" class="s14" d="m107 56h1v1h-1zm-47 8h1v1h-1zm58 8h1v1h-1zm-71 5h1v1h-1zm71 0h1v1h-1zm-32 5h1v1h-1zm-70 16h1v1h-1zm19 1h1v1h-1zm-26 3h1v1h-1zm15 2h1v1h-1z"/>
		<path id="Path 32" class="s14" d="m109 59h1v1h-1zm-71 25h1v1h-1zm-7 5h1v1h-1zm25 1h1v1h-1zm-28 1h1v1h-1zm-27 23h1v1h-1z"/>
		<path id="Path 33" class="s15" d="m49 7h1v1h-1zm-1 1h1v1h-1zm-5 4h1v1h-1zm-4 3h1v1h-1zm-10 7h1v1h-1zm-8 5h1v1h-1zm-12 7h1v1h-1zm33 37h1v1h-1zm-1 1h1v1h-1z"/>
		<path id="Path 34" class="s16" d="m55 2h1v1h-1zm-8 7h1v1h-1zm-5 4h1v1h-1zm-24 16h1v1h-1zm27 38h1v1h-1zm-5 6h1v1h-1zm-1 1h1v1h-1zm-1 1h1v1h-1zm-1 1h1v1h-1zm-13 10h1v1h-1zm-3 2h1v1h-1zm-3 2h1v1h-1z"/>
		<path id="Path 35" class="s17" d="m51 5h1v1h-1zm-1 1h1v1h-1zm-6 5h1v1h-1zm-8 6h1v1h-1zm-3 2h1v1h-1zm-3 2h1v1h-1zm-3 2h1v1h-1zm-3 2h1v1h-1zm-8 5h1v1h-1z"/>
	</g>
</svg>