<svg width="82" height="90" viewBox="0 0 82 90" fill="none" xmlns="http://www.w3.org/2000/svg">
<g clip-path="url(#clip0_65_1857)">
<path d="M40.6293 24.7367C47.4602 24.7367 52.9977 19.1992 52.9977 12.3683C52.9977 5.5375 47.4602 0 40.6293 0C33.7985 0 28.261 5.5375 28.261 12.3683C28.261 19.1992 33.7985 24.7367 40.6293 24.7367Z" fill="#FF931E"/>
<path d="M75.0195 50.6028C69.1004 47.1907 61.5385 49.2227 58.1265 55.1418C56.9517 57.1785 56.424 59.4087 56.4742 61.5982C56.5983 67.0493 51.6963 69.8859 47.0355 67.0708C46.8517 66.9586 46.6631 66.8488 46.472 66.7461C41.7587 64.1148 41.7611 58.5109 46.4768 55.882C50.3377 53.7904 52.9618 49.7002 52.9618 45.0012C52.9618 44.9057 52.9571 44.8126 52.9547 44.7195L52.9594 44.7266C52.8377 39.2683 57.7516 36.4341 62.4172 39.2707C66.1539 41.539 70.9819 41.7515 75.0338 39.4092C80.9482 35.9924 82.973 28.4257 79.5562 22.5114C76.1394 16.597 68.5727 14.5722 62.6583 17.989C58.6088 20.329 56.3858 24.6102 56.4789 28.9773C56.6007 34.4236 51.7035 37.2579 47.0475 34.4475C45.1683 33.2966 42.9621 32.6329 40.5983 32.6329C38.2344 32.6329 36.0282 33.2966 34.1514 34.4451C29.505 37.2459 24.6221 34.4165 24.7462 28.982C24.8418 24.6054 22.6069 20.3147 18.5454 17.9771C12.6238 14.5722 5.06196 16.6113 1.65708 22.5328C-1.7478 28.4544 0.29131 36.0163 6.21283 39.4211C10.26 41.7491 15.0736 41.5319 18.8032 39.2707C23.4569 36.446 28.3589 39.2779 28.2347 44.7218L28.2395 44.7147C28.2395 44.8102 28.2323 44.9057 28.2323 45.0036C28.2323 49.705 30.854 53.7928 34.7173 55.8844C39.4354 58.5157 39.4331 64.1268 34.7126 66.7533C34.5215 66.8559 34.3353 66.9658 34.1514 67.078C29.505 69.874 24.6245 67.0422 24.7486 61.6077C24.8012 59.4087 24.2687 57.1666 23.0868 55.1227C19.6628 49.2107 12.0962 47.1955 6.18418 50.6171C0.26027 54.0387 -1.75496 61.6054 1.66663 67.5173C5.09061 73.4293 12.6573 75.4445 18.5692 72.0229C18.6456 71.9776 18.7197 71.9298 18.7961 71.8844L18.7889 71.894C23.4473 69.067 28.3493 71.9012 28.2228 77.3475L28.2275 77.3404C28.2275 77.4407 28.2204 77.5433 28.2204 77.6436C28.2275 84.4749 33.7694 90.0072 40.6007 90C47.4319 89.9929 52.9642 84.451 52.9571 77.6197C52.9571 77.529 52.9523 77.4383 52.9499 77.3475L52.9547 77.3547C52.8305 71.894 57.7468 69.0574 62.4148 71.894L62.4076 71.8821C62.4936 71.9346 62.5748 71.9871 62.6607 72.0373C68.5798 75.4493 76.1417 73.4174 79.5538 67.4982C82.9658 61.5791 80.9339 54.0172 75.0147 50.6052L75.0195 50.6028Z" fill="#FF931E"/>
</g>
<defs>
<clipPath id="clip0_65_1857">
<rect width="81.2132" height="90" fill="white"/>
</clipPath>
</defs>
</svg>
