<svg width="90" height="90" viewBox="0 0 90 90" fill="none" xmlns="http://www.w3.org/2000/svg">
<path d="M60.6706 89.4335C55.4028 89.8112 50.1251 90 44.8473 90C36.3592 90 27.8711 89.513 19.4525 88.5389C9.68222 88.1811 1.8799 80.349 1.53202 70.5489L1.29348 68.5113C-0.525403 52.3203 -0.42601 36 1.59166 19.968L1.76063 18.6162C1.76063 18.6162 1.76063 18.5864 1.76063 18.5665L1.80038 18.2982C3.06267 9.43236 10.0897 2.55439 18.9854 1.52071C36.1405 -0.506902 53.5442 -0.506902 70.7093 1.52071C80.1715 2.64384 87.7849 10.9531 88.1527 20.5047C90.1107 36.4473 90.1902 52.5986 88.3912 68.5113L88.1527 70.5787C87.8048 79.534 80.6684 87.3263 71.7927 88.3799L60.6806 89.4335H60.6706ZM11.5806 20.1668L11.4514 21.2104C9.53313 36.4671 9.44367 51.9923 11.1632 67.3683L11.4514 70.0718C11.5607 74.7532 15.278 78.5003 19.9197 78.6096L20.3769 78.6394C35.2162 80.3689 50.2841 80.5179 65.1532 79.0767L70.5999 78.5003C74.6949 78.0133 78.1041 74.2363 78.2035 70.0718L78.2333 69.6245L78.4917 67.3683C80.2112 52.1612 80.1317 36.7156 78.2333 21.4787L78.1935 20.9917C78.0743 16.2408 74.188 11.9271 69.5166 11.3705C53.1267 9.43236 36.5083 9.43236 20.1184 11.3705C15.7551 11.8774 12.3161 15.2269 11.6403 19.5704V19.8388L11.5607 20.1469L11.5806 20.1668Z" fill="white"/>
<path d="M43.2859 25.5781H41.1192C38.2865 25.5781 35.9806 27.8741 35.9806 30.7068C35.9806 30.7068 35.9806 33.1021 35.9806 33.291C35.8812 36.4716 33.6051 38.6979 30.4444 38.7675C30.0767 38.7675 27.9099 38.7675 27.9099 38.7675C25.0772 38.7675 22.7812 41.0635 22.7812 43.8962V46.0729C22.7812 48.9056 25.0772 51.2015 27.9099 51.2015H30.345C33.7144 51.2612 35.9408 53.4677 35.9806 56.8272C35.9806 57.3838 35.9806 59.2722 35.9806 59.2722C35.9806 62.1049 38.2865 64.4009 41.1192 64.4009H43.2859C46.1186 64.4009 48.4146 62.1049 48.4146 59.2722V57.0955C48.4146 54.2628 46.1186 51.9669 43.2859 51.9669C43.2859 51.9669 40.8409 51.9669 40.7316 51.9669C37.5709 51.8973 35.2848 49.6808 35.1854 46.5003C35.1854 46.381 35.1854 43.6676 35.1854 43.6179C35.2252 40.2684 37.4615 38.0718 40.8309 38.0121C40.9105 38.0121 43.2859 38.0121 43.2859 38.0121C46.1186 38.0121 48.4146 35.7162 48.4146 32.8835V30.7068C48.4146 27.8741 46.1186 25.5781 43.2859 25.5781Z" fill="white"/>
<path d="M59.8549 25.4219H59.1989C56.5531 25.4219 54.4082 27.5668 54.4082 30.2126V59.7819C54.4082 62.4277 56.5531 64.5726 59.1989 64.5726H59.8549C62.5008 64.5726 64.6456 62.4277 64.6456 59.7819V30.2126C64.6456 27.5668 62.5008 25.4219 59.8549 25.4219Z" fill="white"/>
</svg>
